<svg xmlns="http://www.w3.org/2000/svg" viewBox="0 0 300 96" role="img" aria-label="Rabi">
  <!-- Rabi: population oscillating between the |0> and |1> levels -->
  <g stroke="#7a7f93" stroke-width="1.5" stroke-dasharray="3 4">
    <line x1="16" y1="22" x2="128" y2="22"/>
    <line x1="16" y1="74" x2="128" y2="74"/>
  </g>
  <text x="134" y="27" font-family="Menlo, monospace" font-size="11" fill="#7a7f93">|1&#x27E9;</text>
  <text x="134" y="79" font-family="Menlo, monospace" font-size="11" fill="#7a7f93">|0&#x27E9;</text>
  <polyline points="16.00,74.00 16.93,73.82 17.87,73.28 18.80,72.39 19.73,71.17 20.67,69.62 21.60,67.77 22.53,65.65 23.47,63.28 24.40,60.70 25.33,57.95 26.27,55.06 27.20,52.07 28.13,49.02 29.07,45.96 30.00,42.93 30.93,39.97 31.87,37.11 32.80,34.42 33.73,31.90 34.67,29.62 35.60,27.58 36.53,25.83 37.47,24.39 38.40,23.27 39.33,22.50 40.27,22.08 41.20,22.02 42.13,22.32 43.07,22.98 44.00,23.98 44.93,25.32 45.87,26.97 46.80,28.91 47.73,31.11 48.67,33.56 49.60,36.20 50.53,39.00 51.47,41.93 52.40,44.94 53.33,48.00 54.27,51.06 55.20,54.07 56.13,57.00 57.07,59.80 58.00,62.44 58.93,64.89 59.87,67.09 60.80,69.03 61.73,70.68 62.67,72.02 63.60,73.02 64.53,73.68 65.47,73.98 66.40,73.92 67.33,73.50 68.27,72.73 69.20,71.61 70.13,70.17 71.07,68.42 72.00,66.38 72.93,64.10 73.87,61.58 74.80,58.89 75.73,56.03 76.67,53.07 77.60,50.04 78.53,46.98 79.47,43.93 80.40,40.94 81.33,38.05 82.27,35.30 83.20,32.72 84.13,30.35 85.07,28.23 86.00,26.38 86.93,24.83 87.87,23.61 88.80,22.72 89.73,22.18 90.67,22.00 91.60,22.18 92.53,22.72 93.47,23.61 94.40,24.83 95.33,26.38 96.27,28.23 97.20,30.35 98.13,32.72 99.07,35.30 100.00,38.05 100.93,40.94 101.87,43.93 102.80,46.98 103.73,50.04 104.67,53.07 105.60,56.03 106.53,58.89 107.47,61.58 108.40,64.10 109.33,66.38 110.27,68.42 111.20,70.17 112.13,71.61 113.07,72.73 114.00,73.50 114.93,73.92 115.87,73.98 116.80,73.68 117.73,73.02 118.67,72.02 119.60,70.68 120.53,69.03 121.47,67.09 122.40,64.89 123.33,62.44 124.27,59.80 125.20,57.00 126.13,54.07 127.07,51.06 128.00,48.00" fill="none" stroke="#3ec9b8" stroke-width="3.5"
            stroke-linecap="round" stroke-linejoin="round"/>
  <circle cx="16" cy="74" r="4.5" fill="#3ec9b8"/>
  <text x="170" y="63" font-family="Avenir Next, Helvetica, Arial, sans-serif"
        font-size="44" font-weight="600" fill="#f2f3f7">Rabi</text>
</svg>
