<svg xmlns="http://www.w3.org/2000/svg" viewBox="0 0 96 96" role="img" aria-label="Rabi mark">
  
  <polyline points="14.00,72.00 14.68,71.86 15.36,71.42 16.04,70.71 16.72,69.72 17.40,68.46 18.08,66.96 18.76,65.24 19.44,63.30 20.12,61.18 20.80,58.90 21.48,56.48 22.16,53.97 22.84,51.38 23.52,48.75 24.20,46.12 24.88,43.50 25.56,40.94 26.24,38.47 26.92,36.11 27.60,33.89 28.28,31.85 28.96,30.00 29.64,28.36 30.32,26.97 31.00,25.83 31.68,24.95 32.36,24.36 33.04,24.05 33.72,24.03 34.40,24.30 35.08,24.85 35.76,25.69 36.44,26.79 37.12,28.15 37.80,29.75 38.48,31.57 39.16,33.59 39.84,35.78 40.52,38.12 41.20,40.58 41.88,43.13 42.56,45.74 43.24,48.38 43.92,51.01 44.60,53.60 45.28,56.13 45.96,58.56 46.64,60.86 47.32,63.01 48.00,64.97 48.68,66.73 49.36,68.26 50.04,69.55 50.72,70.58 51.40,71.34 52.08,71.81 52.76,72.00 53.44,71.89 54.12,71.50 54.80,70.83 55.48,69.87 56.16,68.66 56.84,67.19 57.52,65.50 58.20,63.59 58.88,61.49 59.56,59.23 60.24,56.83 60.92,54.33 61.60,51.75 62.28,49.13 62.96,46.49 63.64,43.87 64.32,41.30 65.00,38.82 65.68,36.44 66.36,34.20 67.04,32.13 67.72,30.25 68.40,28.58 69.08,27.15 69.76,25.97 70.44,25.06 71.12,24.43 71.80,24.07 72.48,24.01 73.16,24.24 73.84,24.75 74.52,25.55 75.20,26.62 75.88,27.94 76.56,29.51 77.24,31.30 77.92,33.29 78.60,35.46 79.28,37.78 79.96,40.23 80.64,42.76 81.32,45.37 82.00,48.00" fill="none" stroke="#2a9d8f" stroke-width="6"
            stroke-linecap="round" stroke-linejoin="round"/>
  <circle cx="14" cy="72" r="6" fill="#2a9d8f"/>
</svg>
